<svg width="256" height="256" viewBox="0 0 256 256" fill="none" xmlns="http://www.w3.org/2000/svg">
<g clip-path="url(#clip0_850_165)">
<circle cx="128" cy="128" r="128" fill="#D04910"/>
<path d="M176.857 159.011C166.159 159.011 158.367 155.765 153.482 149.272C148.535 142.717 147.298 133.627 149.771 122.001C151.812 112.54 156.326 104.81 163.314 98.8119C170.302 92.9373 178.866 90 189.008 90C197.541 90 204.467 92.288 209.785 96.864C214.98 101.502 217.453 107.902 217.206 116.065H198.562C198.376 112.787 197.263 110.283 195.222 108.551C193.244 106.758 190.554 105.861 187.153 105.861C182.7 105.861 178.835 107.469 175.558 110.685C172.281 113.9 170.054 118.229 168.879 123.671C166.097 136.657 169.56 143.15 179.268 143.15C182.979 143.15 186.256 142.16 189.101 140.182C192.007 138.141 194.202 135.296 195.686 131.648H214.238C211.517 140.553 206.972 147.355 200.602 152.055C194.233 156.692 186.318 159.011 176.857 159.011Z" fill="white"/>
<path d="M131.204 91.4841L120.63 141.016H149.848L146.324 157.527H98.5537L112.653 91.4841H131.204Z" fill="white"/>
<path d="M110.374 91.1568L106.849 107.668H75.1258L73.2706 116.294H102.953L99.6137 131.877H69.9314L64.5515 157.2H46L60.0991 91.1568H110.374Z" fill="white"/>
</g>
<defs>
<clipPath id="clip0_850_165">
<rect width="256" height="256" fill="white"/>
</clipPath>
</defs>
</svg>
