<svg width="32" height="32" viewBox="0 0 32 32" fill="none" xmlns="http://www.w3.org/2000/svg">
<circle cx="16" cy="16" r="16" fill="#D04910"/>
<path d="M22.1071 19.8764C20.7699 19.8764 19.7959 19.4706 19.1853 18.659C18.5669 17.8396 18.4123 16.7034 18.7215 15.2502C18.9766 14.0675 19.5408 13.1013 20.4143 12.3515C21.2878 11.6172 22.3583 11.25 23.626 11.25C24.6927 11.25 25.5585 11.536 26.2232 12.108C26.8725 12.6877 27.1817 13.4878 27.1508 14.5081H24.8203C24.7971 14.0984 24.658 13.7854 24.4029 13.5689C24.1555 13.3448 23.8193 13.2327 23.3941 13.2327C22.8376 13.2327 22.3545 13.4337 21.9448 13.8356C21.5351 14.2376 21.2569 14.7786 21.11 15.4589C20.7621 17.0821 21.195 17.8937 22.4086 17.8937C22.8724 17.8937 23.2821 17.7701 23.6376 17.5227C24.0009 17.2676 24.2753 16.9121 24.4608 16.456H26.7798C26.4397 17.5691 25.8715 18.4194 25.0754 19.0068C24.2792 19.5866 23.2898 19.8764 22.1071 19.8764Z" fill="white"/>
<path d="M16.4007 11.4355L15.0789 17.6271H18.7312L18.2906 19.6909H12.3193L14.0817 11.4355H16.4007Z" fill="white"/>
<path d="M13.7967 11.3946L13.3561 13.4585H9.39072L9.15883 14.5368H12.8691L12.4517 16.4847H8.74142L8.06893 19.65H5.75L7.51239 11.3946H13.7967Z" fill="white"/>
</svg>
